<svg id="Calque_1" data-name="Calque 1" xmlns="http://www.w3.org/2000/svg" viewBox="0 0 393 155"><defs><style>.cls-1,.cls-3{fill:none;stroke-linecap:round;stroke-miterlimit:10;stroke-width:8px;}.cls-1{stroke:#6E44FF;}.cls-2{fill:#119DA4;}.cls-3{stroke:#090C08;}.cls-4{fill:#090C08;}.cls-5{fill:#fff;}</style></defs><title>arrow</title><rect class="cls-1" x="75" y="25" width="314" height="106" rx="53"/><circle class="cls-2" cx="77.5" cy="77.5" r="77.5"/><line class="cls-3" x1="54.15" y1="95.07" x2="100.24" y2="48.98"/><line class="cls-3" x1="100.83" y1="72.31" x2="100.83" y2="49.16"/><line class="cls-3" x1="77.7" y1="48.41" x2="100.85" y2="48.41"/><path class="cls-4" d="M102.93,193.59c2.79-1.37,4.72-1.11,5.91,1l-2.65,1.3c-.42-.61-1.09-.69-2.19-.15-1.53.75-1.47,1.53-1.11,2.26s1,1.28,2.48.53c1.1-.54,1.44-1.13,1.21-1.84l2.65-1.3c1,2.27,0,4-2.78,5.33-3.07,1.51-5,1-6.15-1.45S99.86,195.09,102.93,193.59Z" transform="translate(-53 -172)"/><path class="cls-4" d="M110.48,189.4l3,8.38-2.51.89-3-8.38Z" transform="translate(-53 -172)"/><path class="cls-4" d="M113.87,188.4l.49,1.7-2.55.75-.5-1.7Zm.62,2.13,1.87,6.39-2.56.75-1.87-6.39Z" transform="translate(-53 -172)"/><path class="cls-4" d="M124.22,188.58l1.63,9.3-2.62.46-.64-3.63a3.84,3.84,0,0,1-2.54,1.48c-1.7.3-3.72-.11-4.18-2.76s1.29-3.72,3-4a3.81,3.81,0,0,1,2.89.53l-.16-.9Zm-2,3.74c-.17-1-.88-1.08-2-.88s-1.8.57-1.63,1.53.88,1.09,2.05.88S122.34,193.29,122.17,192.32Z" transform="translate(-53 -172)"/><path class="cls-4" d="M134.51,188.35l.12,6.67-2.67,0,0-.88a5.47,5.47,0,0,1-3.2,1c-1.5,0-3.21-.42-3.25-2.83l-.06-3.9,2.66,0,0,2.81c0,1.15.44,1.63,1.64,1.61a3.29,3.29,0,0,0,2.13-.88l-.06-3.6Z" transform="translate(-53 -172)"/><path class="cls-4" d="M141.3,193.59l2.58.4c-.61,1.7-2.15,2.31-4.86,1.88s-4.22-1.66-3.83-4.1,2.33-3.11,5-2.69,4.3,1.67,3.85,4.55l-6.24-1c.11.74.81,1,1.54,1.14A2.52,2.52,0,0,0,141.3,193.59Zm-3.16-2.25,3.31.53c-.2-.64-.85-.81-1.55-.93S138.53,190.79,138.14,191.34Z" transform="translate(-53 -172)"/><path class="cls-4" d="M158.09,196.77l-.87,2-8.17-3.51.87-2Z" transform="translate(-53 -172)"/><path class="cls-4" d="M170.06,206.27a3.57,3.57,0,0,1-5.26.86l-4.58-3.53,4.74-6.16,4.58,3.52A3.57,3.57,0,0,1,170.06,206.27Zm-2.29-1.76c.88-1.15.07-1.77-.42-2.15l-1.59-1.22L164,203.43l1.59,1.22C166.08,205,166.89,205.65,167.77,204.51Z" transform="translate(-53 -172)"/><path class="cls-4" d="M173.76,212.26l1.78,1.91c-1.52,1-3.11.48-5-1.53s-2.29-3.9-.48-5.58,3.75-1,5.6,1,2.35,4,.22,5.94l-4.3-4.62c-.37.64,0,1.31.51,1.85A2.55,2.55,0,0,0,173.76,212.26Zm-1.1-3.72,2.28,2.46c.24-.63-.17-1.16-.65-1.69S173.3,208.35,172.66,208.54Zm5.54.09-3.59-2.56,1.14-1.06,3.58,2.56Z" transform="translate(-53 -172)"/><path class="cls-4" d="M184,219.17l-7.07,1.47-2.13-3.13,3.93-6,1.63,2.39-2.83,4.09,4.84-1.15Z" transform="translate(-53 -172)"/><path class="cls-4" d="M183,226.76l1.13,2.35c-1.74.47-3.12-.46-4.31-2.93s-1-4.41,1.19-5.47,3.89.14,5.07,2.59,1.07,4.49-1.55,5.75l-2.74-5.7a1.58,1.58,0,0,0-.06,1.92C182.14,226.14,182.37,226.46,183,226.76Zm0-3.88,1.46,3c.41-.53.18-1.16-.13-1.8S183.72,222.89,183,222.88Z" transform="translate(-53 -172)"/><path class="cls-4" d="M190.21,235.16l-2.12.66a6.85,6.85,0,0,0-.26-1.6,3.42,3.42,0,0,0-1.73-2.34l-3.43,1.06-.79-2.54,6.36-2L189,231l-1.06.33a2.89,2.89,0,0,1,1.93,2.11A6.65,6.65,0,0,1,190.21,235.16Z" transform="translate(-53 -172)"/><path class="cls-4" d="M187.28,236.43c2.44-.38,3.67,1.15,4.1,3.95s-.27,4.63-2.7,5-3.66-1.15-4.1-3.95S184.85,236.81,187.28,236.43Zm1,6.32c1-.15,1.1-.85.92-2s-.53-1.8-1.5-1.65-1.1.85-.92,2S187.3,242.9,188.27,242.75Z" transform="translate(-53 -172)"/><path class="cls-4" d="M191.94,255.13l-6.67-.11,0-2.66h.89a5.42,5.42,0,0,1-.94-3.24c0-1.5.52-3.19,2.93-3.15l3.89.07,0,2.66-2.81,0c-1.14,0-1.64.38-1.66,1.58a3.27,3.27,0,0,0,.81,2.16l3.6.06Z" transform="translate(-53 -172)"/><path class="cls-4" d="M191.4,258.71l-6.61-.8.32-2.65,6.61.8Zm2.21.26-1.77-.21.32-2.65,1.76.22Z" transform="translate(-53 -172)"/><path class="cls-4" d="M193,262.43l-8.75-1.55.46-2.62,8.75,1.55Z" transform="translate(-53 -172)"/><path class="cls-4" d="M192.24,265.86l-8.65-2,.61-2.59,8.64,2Z" transform="translate(-53 -172)"/><path class="cls-4" d="M184,270.8l-.87,2.46c-1.56-.9-1.87-2.53-1-5.12s2.4-3.84,4.72-3,2.64,2.86,1.73,5.42-2.42,3.93-5.16,3l2.11-6c-.75,0-1.16.61-1.41,1.3A2.51,2.51,0,0,0,184,270.8Zm2.78-2.7-1.12,3.16c.67-.08,1-.69,1.19-1.36S187.22,268.58,186.75,268.1Z" transform="translate(-53 -172)"/><path class="cls-4" d="M183.1,281.83l-2-1a6.09,6.09,0,0,0,1-1.32,3.43,3.43,0,0,0,.44-2.87l-3.18-1.68,1.25-2.36,5.89,3.13L185.24,278l-1-.52a2.9,2.9,0,0,1-.13,2.86A6.76,6.76,0,0,1,183.1,281.83Z" transform="translate(-53 -172)"/><path class="cls-4" d="M172.64,292.53,171,291.07l5.84-6.7,1.67,1.45Z" transform="translate(-53 -172)"/><path class="cls-4" d="M161.84,304.3c-2.69,1.55-4.64,1.42-6-.64l2.55-1.48c.47.58,1.14.61,2.2,0,1.48-.85,1.37-1.62,1-2.33s-1.05-1.21-2.52-.36c-1.06.61-1.36,1.22-1.08,1.92l-2.56,1.48c-1.13-2.2-.28-3.95,2.42-5.51,3-1.71,4.88-1.32,6.24,1S164.8,302.59,161.84,304.3Z" transform="translate(-53 -172)"/><path class="cls-4" d="M154.58,309l-3.53-8.16,2.45-1.06,3.52,8.16Z" transform="translate(-53 -172)"/><path class="cls-4" d="M150.53,308.14l-2.3-6.26,2.5-.92,2.3,6.25Zm.77,2.08-.61-1.67,2.5-.92.61,1.67Z" transform="translate(-53 -172)"/><path class="cls-4" d="M141,310.73l-2.26-9.16,2.59-.64.88,3.58a3.81,3.81,0,0,1,2.43-1.65c1.67-.41,3.71-.14,4.35,2.47s-1,3.8-2.71,4.21a3.8,3.8,0,0,1-2.91-.33l.21.88Zm1.79-3.87c.23.95.95,1,2.1.74s1.75-.69,1.52-1.63-1-1-2.1-.74S142.5,305.91,142.74,306.86Z" transform="translate(-53 -172)"/><path class="cls-4" d="M130.62,311.62l-.5-6.65,2.66-.19.07.88a5.41,5.41,0,0,1,3.13-1.23c1.5-.11,3.23.22,3.41,2.63l.29,3.89-2.66.19-.21-2.8c-.09-1.14-.53-1.6-1.73-1.51a3.28,3.28,0,0,0-2.07,1l.26,3.59Z" transform="translate(-53 -172)"/><path class="cls-4" d="M123.57,306.91l-2.6-.23c.49-1.73,2-2.44,4.72-2.2s4.32,1.36,4.1,3.82-2.1,3.27-4.81,3-4.41-1.37-4.15-4.27l6.29.55c-.16-.72-.88-1-1.61-1A2.55,2.55,0,0,0,123.57,306.91Zm3.31,2-3.34-.29c.25.62.91.74,1.61.81S126.53,309.5,126.88,308.93Z" transform="translate(-53 -172)"/><path class="cls-4" d="M106.59,304.88l.73-2.09,8.39,2.92-.74,2.1Z" transform="translate(-53 -172)"/><path class="cls-4" d="M94,296.22A3.56,3.56,0,0,1,99.19,295l4.81,3.2-4.31,6.47-4.81-3.19A3.57,3.57,0,0,1,94,296.22Zm2.41,1.6c-.8,1.2,0,1.77.57,2.11L98.64,301l1.6-2.4-1.67-1.11C98.06,297.19,97.21,296.62,96.41,297.82Z" transform="translate(-53 -172)"/><path class="cls-4" d="M83.54,293.25l6.09-6.46,1.94,1.83-.63.66a3.85,3.85,0,0,1,2.71,1.15c1.25,1.18,2.13,3,.28,5s-3.75,1.18-5,0a3.82,3.82,0,0,1-1.31-2.63l-2.14,2.28ZM89.28,291c-.67.71-.34,1.35.52,2.17s1.53,1.1,2.2.39.34-1.35-.52-2.17S90,290.33,89.28,291Z" transform="translate(-53 -172)"/><path class="cls-4" d="M79,286.42l3.33,2.9-1.24.94-3.33-2.9Zm4.77-3.18-1.58-2.08c1.6-.8,3.14-.18,4.8,2s1.9,4.11-.06,5.6-3.83.65-5.48-1.52-2-4.18.36-5.94l3.83,5c.43-.61.12-1.31-.33-1.89C84.73,283.68,84.44,283.41,83.77,283.24Zm.73,3.81-2-2.67c-.29.6.06,1.17.49,1.74S83.84,287.17,84.5,287.05Z" transform="translate(-53 -172)"/><path class="cls-4" d="M74.27,275.34l7.17-.76,1.82,3.32-4.51,5.62L77.37,281l3.22-3.8-4.93.68Z" transform="translate(-53 -172)"/><path class="cls-4" d="M76,267.89l-.9-2.46c1.78-.29,3.06.77,4,3.35s.59,4.49-1.72,5.33-3.86-.52-4.79-3.08-.62-4.57,2.11-5.57l2.16,5.94c.59-.45.51-1.21.26-1.9A2.5,2.5,0,0,0,76,267.89Zm-.43,3.85-1.15-3.15c-.46.49-.3,1.14,0,1.8S74.89,271.67,75.56,271.74Z" transform="translate(-53 -172)"/><path class="cls-4" d="M69.63,258.82l2.18-.45a6.37,6.37,0,0,0,.1,1.63,3.45,3.45,0,0,0,1.49,2.49l3.52-.72.54,2.61-6.53,1.34-.54-2.61,1.09-.23a2.86,2.86,0,0,1-1.71-2.29A6.66,6.66,0,0,1,69.63,258.82Z" transform="translate(-53 -172)"/><path class="cls-4" d="M72.68,257.83c-2.46.14-3.53-1.5-3.69-4.33s.72-4.57,3.17-4.71,3.53,1.5,3.69,4.32S75.13,257.69,72.68,257.83Zm-.37-6.38c-1,.05-1.18.74-1.11,1.93s.35,1.84,1.32,1.79,1.19-.75,1.12-1.93S73.29,251.39,72.31,251.45Z" transform="translate(-53 -172)"/><path class="cls-4" d="M69.83,238.8l6.63.71-.29,2.65-.88-.09a5.56,5.56,0,0,1,.65,3.31c-.17,1.49-.81,3.13-3.21,2.87l-3.88-.41.29-2.66,2.79.31c1.14.12,1.67-.24,1.8-1.43a3.26,3.26,0,0,0-.61-2.22l-3.58-.39Z" transform="translate(-53 -172)"/><path class="cls-4" d="M68.58,234.79l1.73.38-.58,2.6L68,237.39Zm2.16.48,6.5,1.44-.58,2.6-6.5-1.44Z" transform="translate(-53 -172)"/><path class="cls-4" d="M69.49,231.4l8.56,2.41-.73,2.56L68.77,234Z" transform="translate(-53 -172)"/><path class="cls-4" d="M70.6,228.08,79,231l-.86,2.52-8.41-2.87Z" transform="translate(-53 -172)"/><path class="cls-4" d="M79.33,224l1.1-2.36c1.46,1.05,1.62,2.7.45,5.19s-2.76,3.59-5,2.54-2.35-3.1-1.19-5.57,2.8-3.66,5.43-2.43l-2.68,5.72c.73.1,1.21-.49,1.52-1.16A2.52,2.52,0,0,0,79.33,224Zm-3,2.42,1.43-3c-.67,0-1,.59-1.32,1.24S75.88,225.85,76.29,226.38Z" transform="translate(-53 -172)"/><path class="cls-4" d="M81.28,213.07l1.85,1.23a6.4,6.4,0,0,0-1.08,1.21,3.46,3.46,0,0,0-.72,2.82l3,2-1.47,2.22-5.55-3.68,1.47-2.22.92.62a2.91,2.91,0,0,1,.42-2.83A6.79,6.79,0,0,1,81.28,213.07Z" transform="translate(-53 -172)"/><path class="cls-4" d="M92.74,203.45l1.53,1.61-6.46,6.09-1.52-1.61Z" transform="translate(-53 -172)"/><path class="cls-5" d="M241.12,232.75c10.36,0,15.77,3.63,16.17,11.8h-9.84c-.37-2.44-2.26-3.66-6.33-3.66-5.7,0-6.66,2.41-6.66,5.14s1,5.22,6.66,5.22c4.07,0,6-1.26,6.33-3.74h9.84c-.4,8.22-5.77,11.88-16.17,11.88-11.39,0-16.28-4.33-16.28-13.36S229.73,232.75,241.12,232.75Z" transform="translate(-53 -172)"/><path class="cls-5" d="M267.28,229.42V259H258.4v-29.6Z" transform="translate(-53 -172)"/><path class="cls-5" d="M277.64,229.42v5.92h-8.88v-5.92Zm0,7.4V259h-8.88v-22.2Z" transform="translate(-53 -172)"/><path class="cls-5" d="M309,236.82v31.45h-8.88V256a12.75,12.75,0,0,1-9.18,3.4c-5.74,0-12.14-2.51-12.14-11.47s6.4-11.47,12.14-11.47a12.79,12.79,0,0,1,9.18,3.4v-3Zm-8.88,11.1c0-3.25-2.26-4.07-6.22-4.07s-6.22.82-6.22,4.07,2.26,4.07,6.22,4.07S300.07,251.18,300.07,247.92Z" transform="translate(-53 -172)"/><path class="cls-5" d="M340.69,236.82V259h-8.88v-3a18.13,18.13,0,0,1-10.73,3.33c-5,0-10.66-1.55-10.66-9.58v-13h8.88v9.36c0,3.81,1.37,5.44,5.37,5.44a10.79,10.79,0,0,0,7.14-2.81v-12Z" transform="translate(-53 -172)"/><path class="cls-5" d="M362.85,250.7h8.7c-1.11,5.88-5.88,8.69-15,8.69-8.7,0-14.73-3.25-14.73-11.47s6-11.47,15.1-11.47,15,3.26,15,13H350.86c.74,2.37,3.22,3,5.67,3C359.75,252.36,361,252.14,362.85,250.7ZM351.27,245h11.18c-1-2-3.22-2.22-5.59-2.22S352.27,243,351.27,245Z" transform="translate(-53 -172)"/><path class="cls-5" d="M397.08,250.14H388.2l-.37-17h9.62Zm0,2.22V259H388.2v-6.66Z" transform="translate(-53 -172)"/></svg>