<svg id="Calque_1" data-name="Calque 1" xmlns="http://www.w3.org/2000/svg" viewBox="0 0 403 403"><defs><style>.cls-1{fill:#ee7674;}.cls-2{fill:#fff;}</style></defs><title>choixtext2</title><path class="cls-1" d="M251.61,340.29q-39.26-50.37-78.53-100.73c-31-39.73,26.14-86.88,66.54-54.92l12,9.49,12-9.49c40.39-32,97.52,15.19,66.54,54.92Z" transform="translate(-49 -49)"/><path class="cls-2" d="M190.27,95c8.86-3.42,14.67-2.1,17.71,4.75L199.57,103c-1.12-2-3.13-2.39-6.61-1.05-4.87,1.88-4.9,4.25-4,6.59s2.58,4.13,7.42,2.27c3.47-1.35,4.67-3,4.17-5.29l8.41-3.24c2.36,7.15-1,12-9.9,15.48-9.74,3.76-15.34,1.67-18.32-6S180.54,98.77,190.27,95Z" transform="translate(-49 -49)"/><path class="cls-2" d="M238.1,95.94l2,11.73L232,109l-1.41-8.45c-.58-3.44-2.06-4.71-5.67-4.1a9.89,9.89,0,0,0-6,3.61l1.81,10.83-8,1.34-4.47-26.73,8-1.34,1.56,9.35A16.62,16.62,0,0,1,227,88.9C231.54,88.14,236.89,88.69,238.1,95.94Z" transform="translate(-49 -49)"/><path class="cls-2" d="M240,97.54c.18-7.52,5.44-10.37,14.07-10.16s13.75,3.31,13.57,10.83-5.44,10.38-14.08,10.17S239.79,105.06,240,97.54Zm19.51.48c.07-3-2-3.78-5.6-3.87s-5.71.61-5.78,3.59,2,3.78,5.6,3.86S259.42,101,259.49,98Z" transform="translate(-49 -49)"/><path class="cls-2" d="M278.71,90.15l-3.07,20.1-8-1.23,3.06-20.09Zm1-6.7-.82,5.36-8-1.22.81-5.36Z" transform="translate(-49 -49)"/><path class="cls-2" d="M285.85,105.22c-.32,1.1.6,1.83,5.32,3.19,4.36,1.25,5.17,1.27,5.41.42s-.49-1.09-5.13-2.63c-8.88-3-12.62-4.77-11.19-9.75,1.6-5.57,7.9-4.78,15.13-2.7s12,4.48,10.38,10.11L298,101.61c.3-1-1-1.41-4.49-2.42-4-1.14-5.11-1.47-5.33-.72s.59,1,5.46,2.7c7.58,2.6,12.36,4.48,10.89,9.59-1.71,6-7.19,5.4-14.59,3.27S276.27,109.09,278,103Z" transform="translate(-49 -49)"/><path class="cls-2" d="M318.21,102.6l-8.09,18.66L302.66,118l8.08-18.66Zm2.69-6.22-2.15,5-7.47-3.23,2.16-5Z" transform="translate(-49 -49)"/><path class="cls-2" d="M339.44,114.48l-3.35,5.9a19.22,19.22,0,0,0-3.94-3c-2.5-1.43-5.41-2.69-8.71-1.61L318,125.29l-7.07-4L321,103.6l7.07,4-1.68,2.95c2.89-1.44,5.82-1,8.71.66A21.06,21.06,0,0,1,339.44,114.48Z" transform="translate(-49 -49)"/><path class="cls-2" d="M364.36,134.31c5.71,5.64,7.5,11,3.48,16.06l-5.91-5.84c.76-1.68-.26-3.35-2.33-5.4-2.58-2.55-4.58-3.47-6.67-1.35s-1.15,4.11,1.43,6.65c2.07,2,3.75,3,5.43,2.27l5.9,5.84c-5,4.08-10.38,2.36-16.1-3.28-6.15-6.08-7.74-11.84-2.45-17.2S358.21,128.23,364.36,134.31Z" transform="translate(-49 -49)"/><path class="cls-2" d="M376.59,170l4.5,6.57c-5,2.21-9.62.06-14.35-6.85-4.5-6.57-5.17-12.81,1-17.06s11.79-1.39,16.48,5.46,5.32,13-2,18.06l-10.9-15.91c-1.41,1.79-.57,4,.69,5.81C373.72,168.52,374.56,169.39,376.59,170Zm-1.67-11.72,5.79,8.44c1-1.79,0-3.58-1.22-5.37S377,158,374.92,158.29Z" transform="translate(-49 -49)"/><path class="cls-2" d="M404.6,199.29c2.5,7.63,1.63,13.23-4.24,15.87l-2.59-7.89c1.44-1.15,1.3-3.1.39-5.87-1.13-3.45-2.48-5.18-5.31-4.25s-2.9,3.13-1.77,6.57c.91,2.77,1.95,4.43,3.79,4.5l2.59,7.89c-6.3,1.35-10.32-2.65-12.82-10.28-2.69-8.21-1.48-14.06,5.67-16.41S401.91,191.08,404.6,199.29Z" transform="translate(-49 -49)"/><path class="cls-2" d="M402.5,243.32l-10,1.31-1-8.07,2.45-.32c-2.69-2.82-3.66-6.25-4.11-9.75-.6-4.6.51-8.85,4.88-9.42,5.24-.69,7.41,5.18,8.18,11.06a19.71,19.71,0,0,1-.15,7c2.42-.32,2.19-2.88,1.84-5.57a42.88,42.88,0,0,0-2.25-9.11l5.37-3.36a41.44,41.44,0,0,1,3.63,11.86C412.39,237.17,410.19,242.25,402.5,243.32Zm-3.61-7.73a22.11,22.11,0,0,0-.19-5.41c-.49-3.73-1-5.3-2.32-5.13-1.1.15-1.15,1.11-.88,3.16a21,21,0,0,0,2.55,7.49Z" transform="translate(-49 -49)"/><path class="cls-2" d="M418.05,273.45,391,271.9l.47-8.11,2.77.15a11.66,11.66,0,0,1-2.63-8.56c.3-5.25,2.94-11,11.12-10.5s10.16,6.45,9.85,11.7a11.66,11.66,0,0,1-3.59,8.21l9.54.54Zm-16.45-9.08c3,.17,3.84-1.85,4-5.47s-.42-5.73-3.39-5.9-3.84,1.85-4.05,5.47S398.62,264.2,401.6,264.37Z" transform="translate(-49 -49)"/><path class="cls-2" d="M393.62,292.46l-2,7.72c-5-2.32-6.38-7.2-4.3-15.31,2-7.72,6.23-12.33,13.52-10.47s8.81,8,6.75,16-6.3,12.6-14.9,10.4l4.78-18.69c-2.27.12-3.36,2.19-3.92,4.36C392.84,289.32,392.75,290.52,393.62,292.46Zm7.71-9-2.53,9.92c2-.44,2.7-2.36,3.24-4.46S402.88,284.82,401.33,283.48Z" transform="translate(-49 -49)"/><path class="cls-2" d="M382.18,326.41l-9.12-4.26,3.45-7.37,2.24,1.05c-.76-3.83.28-7.24,1.77-10.43,2-4.21,5.19-7.19,9.18-5.32,4.79,2.23,3.46,8.35.95,13.72a19.64,19.64,0,0,1-3.86,5.79c2.21,1,3.39-1.26,4.54-3.71a42.47,42.47,0,0,0,3-8.89l6.34,0a41.08,41.08,0,0,1-3.3,12C393.83,326.54,389.24,329.63,382.18,326.41Zm1.11-8.46a21.94,21.94,0,0,0,2.74-4.66c1.59-3.41,2-5,.81-5.57-1-.48-1.57.31-2.44,2.18a21,21,0,0,0-1.88,7.69Z" transform="translate(-49 -49)"/><path class="cls-2" d="M373,356.85l-16.42-12,4.8-6.57,2.19,1.6a16.61,16.61,0,0,1,3.33-9.74c2.7-3.69,6.91-7,12.85-2.7l9.6,7L384.56,341l-6.93-5c-2.82-2.06-4.76-1.93-6.92,1a9.91,9.91,0,0,0-1.78,6.8l8.87,6.48Z" transform="translate(-49 -49)"/><path class="cls-2" d="M334.18,383.12l-4.1-5.39,21.57-16.42,4.1,5.39Z" transform="translate(-49 -49)"/><path class="cls-2" d="M307.61,405.79c-8.9,3.29-14.69,1.9-17.64-5l8.45-3.13c1.1,2,3.11,2.43,6.6,1.14,4.9-1.82,5-4.19,4.09-6.54s-2.52-4.16-7.38-2.36c-3.5,1.29-4.72,3-4.25,5.22L289,398.25c-2.27-7.19,1.18-12,10.11-15.35,9.79-3.62,15.36-1.45,18.23,6.3S317.4,402.17,307.61,405.79Z" transform="translate(-49 -49)"/><path class="cls-2" d="M259.81,404.21,258,392.46l8-1.24,1.3,8.48c.53,3.45,2,4.73,5.61,4.17a9.91,9.91,0,0,0,6.08-3.54l-1.67-10.85,8-1.23L289.52,415l-8,1.24L280,406.9a16.64,16.64,0,0,1-9.25,4.51C266.27,412.1,260.93,411.48,259.81,404.21Z" transform="translate(-49 -49)"/><path class="cls-2" d="M258,402.58c-.28,7.51-5.58,10.3-14.21,10s-13.7-3.5-13.42-11,5.58-10.3,14.21-10S258.26,395.06,258,402.58Zm-19.5-.74c-.12,3,1.92,3.8,5.55,3.94s5.71-.53,5.82-3.51-1.92-3.8-5.54-3.94S238.58,398.86,238.47,401.84Z" transform="translate(-49 -49)"/><path class="cls-2" d="M218,416.14l.89-5.35,8,1.34-.9,5.34Zm1.11-6.69,3.35-20.06,8,1.34-3.34,20.06Z" transform="translate(-49 -49)"/><path class="cls-2" d="M212.23,394.3c.33-1.11-.58-1.84-5.28-3.26-4.35-1.32-5.15-1.35-5.41-.51s.48,1.1,5.09,2.71c8.85,3.07,12.57,4.93,11.07,9.9-1.68,5.55-8,4.67-15.17,2.49s-11.94-4.64-10.25-10.25l7.79,2.36c-.31,1,1,1.43,4.45,2.48,4,1.19,5.1,1.54,5.32.79s-.57-1-5.42-2.77c-7.54-2.71-12.3-4.64-10.76-9.74,1.79-5.93,7.27-5.3,14.63-3.08s13.57,5.13,11.72,11.23Z" transform="translate(-49 -49)"/><path class="cls-2" d="M177,402.65l2.22-4.94,7.42,3.33L184.46,406Zm2.77-6.18,8.34-18.55,7.42,3.34-8.34,18.54Z" transform="translate(-49 -49)"/><path class="cls-2" d="M158.75,384.31l3.43-5.85a19.54,19.54,0,0,0,3.89,3.07c2.49,1.46,5.38,2.76,8.7,1.73l5.56-9.48,7,4.12-10.29,17.54-7-4.11,1.71-2.93c-2.9,1.4-5.83.9-8.7-.78A20.77,20.77,0,0,1,158.75,384.31Z" transform="translate(-49 -49)"/><path class="cls-2" d="M134.09,364.14c-5.64-5.72-7.35-11.13-3.26-16.1l5.83,5.91c-.78,1.67.21,3.36,2.26,5.43,2.54,2.59,4.52,3.54,6.65,1.44s1.2-4.09-1.34-6.67c-2-2.08-3.72-3.1-5.4-2.34L133,345.89c5-4,10.42-2.22,16.06,3.5,6.06,6.16,7.58,11.94,2.22,17.23S140.16,370.3,134.09,364.14Z" transform="translate(-49 -49)"/><path class="cls-2" d="M122.34,328.28l-4.41-6.63c5-2.14,9.61.07,14.25,7,4.42,6.62,5,12.87-1.26,17s-11.81,1.23-16.41-5.68-5.14-13.1,2.24-18l10.69,16c1.43-1.76.62-3.95-.62-5.82C125.19,329.8,124.36,328.93,122.34,328.28ZM123.85,340l-5.67-8.52c-1,1.78-.06,3.58,1.14,5.38S121.82,340.27,123.85,340Z" transform="translate(-49 -49)"/><path class="cls-2" d="M94.74,298.66c-2.4-7.66-1.45-13.25,4.46-15.81l2.48,7.92c-1.46,1.13-1.34,3.09-.47,5.87,1.08,3.46,2.41,5.21,5.26,4.31s2.93-3.08,1.85-6.54c-.87-2.78-1.89-4.45-3.73-4.55l-2.48-7.92c6.31-1.27,10.28,2.78,12.68,10.44,2.58,8.25,1.29,14.08-5.89,16.33S97.32,306.91,94.74,298.66Z" transform="translate(-49 -49)"/><path class="cls-2" d="M97.42,254.63l10-1.17.94,8.08-2.45.29c2.65,2.86,3.57,6.3,4,9.8.54,4.61-.63,8.84-5,9.36-5.25.62-7.34-5.28-8-11.17a19.68,19.68,0,0,1,.24-7c-2.43.29-2.23,2.86-1.91,5.55a42.45,42.45,0,0,0,2.13,9.13l-5.41,3.3a40.73,40.73,0,0,1-3.48-11.91C87.44,260.65,89.72,255.61,97.42,254.63Zm3.51,7.78a22,22,0,0,0,.12,5.41c.44,3.74,1,5.31,2.24,5.16,1.11-.13,1.17-1.09.93-3.14a21,21,0,0,0-2.45-7.53Z" transform="translate(-49 -49)"/><path class="cls-2" d="M82.29,224.3l27,1.92-.58,8.11-2.77-.2a11.63,11.63,0,0,1,2.51,8.6c-.37,5.24-3.08,10.93-11.26,10.35s-10.06-6.59-9.69-11.83a11.66,11.66,0,0,1,3.7-8.16l-9.53-.68Zm16.32,9.31c-3-.21-3.86,1.8-4.12,5.41s.34,5.73,3.32,5.95,3.86-1.8,4.12-5.42S101.59,233.82,98.61,233.61Z" transform="translate(-49 -49)"/><path class="cls-2" d="M107,205.64,109,198c4.94,2.38,6.28,7.27,4.11,15.35-2.08,7.69-6.39,12.25-13.66,10.29s-8.7-8.07-6.54-16.08,6.46-12.51,15-10.2l-5,18.62c2.27-.09,3.39-2.14,4-4.3C107.69,208.78,107.8,207.58,107,205.64Zm-7.84,8.87,2.67-9.88c-2,.41-2.73,2.32-3.3,4.41S97.6,213.15,99.12,214.51Z" transform="translate(-49 -49)"/><path class="cls-2" d="M118.86,171.82l9.06,4.38-3.54,7.32-2.23-1.08c.7,3.84-.37,7.24-1.91,10.41-2,4.18-5.28,7.12-9.25,5.2-4.76-2.3-3.35-8.4-.77-13.74a19.71,19.71,0,0,1,3.94-5.73c-2.2-1.06-3.41,1.21-4.59,3.65a42.45,42.45,0,0,0-3.11,8.85l-6.34-.13A41.12,41.12,0,0,1,103.59,179C107.22,171.53,111.85,168.5,118.86,171.82Zm-1.22,8.44a21.74,21.74,0,0,0-2.81,4.63c-1.63,3.38-2,5-.88,5.56,1,.48,1.57-.3,2.47-2.16a20.8,20.8,0,0,0,2-7.66Z" transform="translate(-49 -49)"/><path class="cls-2" d="M128.43,141.54l16.26,12.2-4.88,6.51-2.17-1.63a16.64,16.64,0,0,1-3.46,9.69c-2.75,3.66-7,6.95-12.88,2.53l-9.51-7.13,4.88-6.51,6.86,5.15c2.79,2.09,4.73,2,6.93-.94a10,10,0,0,0,1.87-6.78L123.55,148Z" transform="translate(-49 -49)"/><path class="cls-2" d="M167.62,115.75l4,5.45-21.79,16.12-4-5.44Z" transform="translate(-49 -49)"/><path class="cls-1" d="M250.5,58C356.81,58,443,144.19,443,250.5S356.81,443,250.5,443,58,356.81,58,250.5,144.19,58,250.5,58m0-9a200.87,200.87,0,1,0,78.44,15.84A200.27,200.27,0,0,0,250.5,49Z" transform="translate(-49 -49)"/></svg>