<svg id="Calque_1" data-name="Calque 1" xmlns="http://www.w3.org/2000/svg" viewBox="0 0 428 428"><defs><style>.cls-1{fill:#6E44FF;}.cls-2{fill:#090C08;}</style></defs><title>globe</title><path class="cls-1" d="M250,72A178,178,0,1,1,72,250,178,178,0,0,1,250,72m0-36a214,214,0,0,0-83.31,411.17A214,214,0,0,0,333.31,52.83,212.7,212.7,0,0,0,250,36Z" transform="translate(-36 -36)"/><path class="cls-2" d="M138.3,87.91c2.78,3.69,2.1,7-2.25,10.28s-7.72,3-10.5-.69l4-3c.85,1.14,2,1.84,4,.32s1.66-2.84.82-4l-1.48-2-3.44,2.59-2.51-3.34,7.39-5.55Z" transform="translate(-36 -36)"/><path class="cls-2" d="M138.25,77.86l1.69,2.53-3.8,2.53-1.68-2.53ZM140.36,81l6.31,9.49L142.88,93l-6.32-9.49Z" transform="translate(-36 -36)"/><path class="cls-2" d="M157.1,76.45l3.38,5.74-3.93,2.31-2.44-4.14c-1-1.69-2-2-3.79-1a5.5,5.5,0,0,0-2.42,3.1L151,87.76l-3.93,2.31-5.78-9.82,3.93-2.32.77,1.31A9.32,9.32,0,0,1,149.89,75C152.1,73.68,155,72.89,157.1,76.45Z" transform="translate(-36 -36)"/><path class="cls-2" d="M169.78,65.06l4.31,9c2,4.11-.26,7-3.79,8.71A29.8,29.8,0,0,1,163.5,85l-1.61-3.34a34.14,34.14,0,0,0,6-2c2-1,2.85-2,1.63-4.58A6,6,0,0,1,166,78.91c-3.17,1.52-6.17,1.11-7.83-2.35S158,70.5,161.18,69a6,6,0,0,1,5.24-.41L165.68,67ZM168,71.82c-.56-1.16-1.44-1.2-3.62-.15s-2.69,1.75-2.13,2.92,1.44,1.2,3.61.16S168.54,73,168,71.82Z" transform="translate(-36 -36)"/><path class="cls-2" d="M173.74,59.42l5.81,14-4.21,1.75-5.81-14Z" transform="translate(-36 -36)"/><path class="cls-2" d="M188.66,65.58l4.21-1.48c.46,3-1.37,5.22-5.8,6.77-4.21,1.48-7.69.92-9.08-3.06s1-6.58,5.36-8.12,7.83-1,9.48,3.72L182.63,67c.76,1,2.06.89,3.25.47C187.44,66.92,188,66.59,188.66,65.58Zm-6.59-.81,5.42-1.9c-.83-.8-1.94-.53-3.09-.13S182.22,63.63,182.07,64.77Z" transform="translate(-36 -36)"/><path class="cls-2" d="M215.89,57.1c1,4.49-2,6.45-4.84,7.08a6.5,6.5,0,0,1-5-.71l.34,1.53L202,66l-3.24-14.86,4.46-1,1.14,5.24a6.54,6.54,0,0,1,4.23-2.71C211.42,52,214.91,52.6,215.89,57.1Zm-4.46,1c-.35-1.64-1.58-1.8-3.56-1.37s-3,1.09-2.68,2.73,1.58,1.79,3.57,1.36S211.79,59.7,211.43,58.07Z" transform="translate(-36 -36)"/><path class="cls-2" d="M227.38,57l4.42-.58c-.17,3.07-2.41,4.82-7.06,5.43-4.42.59-7.71-.66-8.26-4.84s2.3-6.24,6.91-6.85,7.86.64,8.52,5.58l-10.72,1.41c.54,1.16,1.84,1.29,3.08,1.13C225.91,58.06,226.55,57.86,227.38,57Zm-6.28-2.14,5.69-.75c-.65-1-1.79-.91-3-.75S221.47,53.78,221.1,54.86Z" transform="translate(-36 -36)"/><path class="cls-2" d="M236.35,45.23l1.16,15.16-4.55.35L231.8,45.58Z" transform="translate(-36 -36)"/><path class="cls-2" d="M242,44.94l.76,15.18-4.56.23-.75-15.19Z" transform="translate(-36 -36)"/><path class="cls-2" d="M247.74,56c0,.64.59.9,3.34.94,2.55,0,3-.06,3-.56s-.43-.52-3.17-.67c-5.24-.3-7.53-.73-7.48-3.64,0-3.25,3.57-3.74,7.79-3.67s7.15.66,7.1,3.95l-4.56-.08c0-.6-.75-.62-2.78-.65-2.32,0-3,0-3,.39s.47.46,3.35.66c4.48.3,7.35.62,7.3,3.6-.06,3.47-3.11,4-7.42,3.91s-8.1-.68-8-4.26Z" transform="translate(-36 -36)"/><path class="cls-2" d="M263.75,57.05l-.2,3.41-2.39,4.05-2-.12,1.54-4.1L259,60.2l.2-3.42Z" transform="translate(-36 -36)"/><path class="cls-2" d="M279.51,61.72c-.46,3.39-2.25,5-5.94,4.51a20.09,20.09,0,0,1-3.29-.73l.49-3.67a17,17,0,0,0,2.29.5c1.32.18,1.78-.13,1.95-1.39l1.43-10.62,4.52.61Zm2-14.56-.41,3-4.52-.61.41-3Z" transform="translate(-36 -36)"/><path class="cls-2" d="M286.5,51.89l-1.92,11.23-4.49-.77L282,51.12Zm.64-3.74-.51,3-4.49-.77.51-3Z" transform="translate(-36 -36)"/><path class="cls-2" d="M301.83,60.08l-1.5,6.49-4.44-1L297,60.87c.44-1.91-.06-2.88-2.06-3.34a5.6,5.6,0,0,0-3.9.58l-1.38,6-4.44-1L287.75,52l4.44,1-.34,1.48a9.27,9.27,0,0,1,5.75-.43C300.1,54.63,302.75,56.06,301.83,60.08Z" transform="translate(-36 -36)"/><path class="cls-2" d="M318.88,60.52l-3,9.47c-1.39,4.34-5,4.92-8.73,3.72a29.89,29.89,0,0,1-6.52-3l1.13-3.53a33.49,33.49,0,0,0,5.75,2.68c2.12.68,3.42.54,4.34-2.2a6,6,0,0,1-5.25.31c-3.35-1.07-5.25-3.43-4.08-7.09s4.09-4.48,7.44-3.4a6,6,0,0,1,4.09,3.3l.52-1.63Zm-6,3.68c.39-1.23-.22-1.87-2.52-2.6s-3.17-.58-3.56.65.22,1.87,2.52,2.6S312.51,65.43,312.91,64.2Z" transform="translate(-36 -36)"/><path class="cls-2" d="M325.59,59.16l-5.45,14.19-4.26-1.63,5.45-14.2Z" transform="translate(-36 -36)"/><path class="cls-2" d="M332.19,73.89l4.07,1.82c-1.75,2.53-4.58,2.84-8.86.92-4.08-1.82-6.22-4.61-4.49-8.46s5.23-4.11,9.48-2.21,6.35,4.68,4.32,9.23l-9.87-4.42c-.15,1.26.89,2.06,2,2.57C330.38,74,331,74.18,332.19,73.89ZM328,68.77l5.23,2.35c-.05-1.15-1-1.72-2.15-2.22S328.85,68,328,68.77Z" transform="translate(-36 -36)"/><path class="cls-2" d="M357.81,86.45c-2.38,3.94-5.86,3.35-8.38,1.82a6.48,6.48,0,0,1-3.13-3.93l-.81,1.33-3.9-2.36,7.86-13,3.9,2.36-2.77,4.59a6.54,6.54,0,0,1,4.94.94C358,79.71,360.19,82.52,357.81,86.45Zm-3.91-2.36c.87-1.43.09-2.38-1.65-3.44s-2.95-1.29-3.81.14-.09,2.39,1.65,3.44S353,85.53,353.9,84.09Z" transform="translate(-36 -36)"/><path class="cls-2" d="M366.22,94.28l3.62,2.62C367.61,99,364.77,98.75,361,96c-3.62-2.61-5.15-5.78-2.67-9.2s6-3,9.73-.23,5.27,5.88,2.35,9.91l-8.76-6.34c-.4,1.21.45,2.2,1.47,2.94C364.43,94,365,94.34,366.22,94.28Zm-3.09-5.87,4.65,3.36c.19-1.13-.67-1.89-1.66-2.6S364.15,87.88,363.13,88.41Z" transform="translate(-36 -36)"/><path class="cls-2" d="M380.82,91.88l-9.57,11.82-3.54-2.88L377.28,89Z" transform="translate(-36 -36)"/><path class="cls-2" d="M385.12,95.55l-9.88,11.54-3.47-3,9.89-11.55Z" transform="translate(-36 -36)"/><path class="cls-2" d="M381.64,107.55c-.45.47-.18,1.07,1.81,3s2.24,2,2.58,1.62,0-.67-1.86-2.64c-3.65-3.77-5-5.65-3-7.75,2.25-2.35,5.17-.32,8.22,2.59s4.79,5.35,2.52,7.72l-3.29-3.15c.42-.44-.13-1-1.6-2.36-1.68-1.61-2.16-2.06-2.46-1.75s0,.66,2,2.76c3.09,3.26,5,5.44,2.92,7.59-2.41,2.52-5,.82-8.1-2.16s-5.48-6-3-8.59Z" transform="translate(-36 -36)"/><path class="cls-2" d="M392.62,119.32l-2.5,2.34-4.51,1.3-1.4-1.49,3.94-1.92L387,118.34l2.5-2.34Z" transform="translate(-36 -36)"/><path class="cls-2" d="M410.57,136.14c-3.65,2.82-7,2.19-10.31-2.12s-3.11-7.67.55-10.5l3,3.9c-1.12.88-1.8,2-.26,4s2.87,1.62,4,.76l1.94-1.49-2.64-3.42,3.31-2.55,5.65,7.32Z" transform="translate(-36 -36)"/><path class="cls-2" d="M417.5,138.11l-9.4,6.45-2.58-3.76,9.4-6.45Zm3.13-2.15-2.5,1.72-2.58-3.76,2.5-1.72Z" transform="translate(-36 -36)"/><path class="cls-2" d="M422.3,154.79l-5.7,3.46-2.37-3.9,4.12-2.49c1.67-1,2-2.05,1-3.81a5.6,5.6,0,0,0-3.14-2.39l-5.27,3.2-2.36-3.9,9.75-5.92,2.36,3.9-1.3.79a9.28,9.28,0,0,1,4.32,3.83C425,149.75,425.83,152.65,422.3,154.79Z" transform="translate(-36 -36)"/><path class="cls-2" d="M433.86,167.34,425,171.76c-4.09,2-7-.16-8.76-3.66a29.13,29.13,0,0,1-2.37-6.78l3.32-1.65a33.76,33.76,0,0,0,2.08,6c1,2,2,2.82,4.6,1.57a6,6,0,0,1-3.88-3.54c-1.57-3.15-1.19-6.16,2.24-7.86s6.06-.19,7.63,2.95a6,6,0,0,1,.47,5.24l1.54-.76Zm-6.79-1.71c1.16-.58,1.19-1.46.11-3.62s-1.79-2.68-2.95-2.1-1.18,1.46-.11,3.62S425.92,166.2,427.07,165.63Z" transform="translate(-36 -36)"/><path class="cls-2" d="M439.53,171.2l-14,6-1.8-4.19,14-6Z" transform="translate(-36 -36)"/><path class="cls-2" d="M433.58,186.2l1.53,4.2c-3,.5-5.23-1.31-6.84-5.72-1.53-4.19-1-7.68,2.94-9.12s6.6.89,8.19,5.26,1.08,7.82-3.6,9.53l-3.71-10.16c-1,.77-.86,2.07-.43,3.25C432.23,185,432.56,185.58,433.58,186.2Zm.73-6.6,2,5.4c.79-.84.51-1.95.09-3.09S435.45,179.74,434.31,179.6Z" transform="translate(-36 -36)"/><path class="cls-2" d="M442.26,212.82l-5.5,1.28-1-4.44,1.35-.32a9.27,9.27,0,0,1-2.83-5.21c-.59-2.54-.2-5,2.21-5.53,2.88-.67,4.42,2.48,5.17,5.72a11.18,11.18,0,0,1,.3,3.89c1.33-.31,1.06-1.73.72-3.21a23.74,23.74,0,0,0-1.76-4.95l2.81-2.18a22.81,22.81,0,0,1,2.68,6.42C447.44,208.84,446.49,211.8,442.26,212.82Zm-2.44-4.12a12.26,12.26,0,0,0-.41-3c-.47-2.06-.87-2.9-1.57-2.74s-.58.68-.32,1.81a11.76,11.76,0,0,0,1.84,4Z" transform="translate(-36 -36)"/><path class="cls-2" d="M452.49,216.55l-15,2.63-.79-4.49,15-2.63Z" transform="translate(-36 -36)"/><path class="cls-2" d="M453.34,222.14l-15,2.21-.67-4.51,15-2.21Z" transform="translate(-36 -36)"/><path class="cls-2" d="M447.28,238.57l-2.35.15c-1.08.07-1.61.52-1.52,1.85a16.31,16.31,0,0,0,.37,2.89l-3.7.23a22.85,22.85,0,0,1-.53-3.91c-.22-3.52.75-5.34,3.21-5.49L447,234l-.14-2.29,3.79-.24.15,2.29,1.89-.11,1.43,4.48-3,.19.3,4.64-3.8.24Z" transform="translate(-36 -36)"/><path class="cls-2" d="M446.54,259.66l-6.67-.11.07-4.55,4.81.07c1.95,0,2.8-.65,2.83-2.71a5.52,5.52,0,0,0-1.38-3.69l-6.16-.1.08-4.55,15.19.24-.07,4.56-5.32-.09a9.32,9.32,0,0,1,1.62,5.54C451.5,256.83,450.66,259.73,446.54,259.66Z" transform="translate(-36 -36)"/><path class="cls-2" d="M443.19,270.86l-.41,4.44c-2.95-.84-4.17-3.41-3.74-8.09.4-4.44,2.35-7.37,6.55-7s5.58,3.62,5.16,8.25-2.36,7.53-7.32,7.08l1-10.76c-1.24.26-1.66,1.5-1.78,2.75C442.48,269.19,442.54,269.86,443.19,270.86Zm3.47-5.66-.52,5.72c1.07-.42,1.29-1.55,1.4-2.76S447.64,265.8,446.66,265.2Z" transform="translate(-36 -36)"/><path class="cls-2" d="M442.76,309.89l-10-7.29,1.3-5.38,6.34-.91-5.22-3.7,1.3-5.38,12.2-1.93-1.21,5-7.6.87,6.39,4.13-1.12,4.62-7.57.74,6.36,4.26Z" transform="translate(-36 -36)"/><path class="cls-2" d="M432.15,321.94l-5.33-1.87,1.51-4.31,1.31.46a9.26,9.26,0,0,1,.41-5.92c.86-2.45,2.5-4.29,4.83-3.47,2.8,1,2.4,4.46,1.29,7.6a11.16,11.16,0,0,1-1.83,3.45c1.29.45,1.82-.89,2.33-2.33a24.09,24.09,0,0,0,1.17-5.12l3.54-.33A22.91,22.91,0,0,1,440.2,317C438.65,321.37,436.26,323.35,432.15,321.94Zm.14-4.78a12.51,12.51,0,0,0,1.28-2.76c.7-2,.82-2.91.14-3.15s-.86.26-1.25,1.35a11.94,11.94,0,0,0-.61,4.4Z" transform="translate(-36 -36)"/><path class="cls-2" d="M431.14,338.52,419,326.09l2-4.52,3.59,3.65.84-1.91,12.35.23-2,4.53-8.58-.16,6,6.09Z" transform="translate(-36 -36)"/><path class="cls-2" d="M421.8,339l-3.06-1.53,2.05-4.08,3.06,1.54Z" transform="translate(-36 -36)"/><path class="cls-2" d="M420.75,348c3.9,2.47,4.42,5.76,1.29,10.71s-6.35,5.87-10.23,3.41-4.45-5.8-1.33-10.73S416.83,345.53,420.75,348Zm-6.3,9.95c1.17.74,2.5,1,4.06-1.48s.79-3.55-.4-4.3-2.54-1-4.09,1.46S413.26,357.21,414.45,358Z" transform="translate(-36 -36)"/><path class="cls-2" d="M401.88,375.2l-5.31-4,2.76-3.63,3.83,2.91c1.56,1.19,2.65,1.14,3.89-.5a5.52,5.52,0,0,0,1.07-3.79l-4.9-3.73,2.76-3.63,12.1,9.21-2.76,3.63-4.24-3.22a9.3,9.3,0,0,1-2,5.42C407.56,375.87,405.16,377.7,401.88,375.2Z" transform="translate(-36 -36)"/><path class="cls-2" d="M395.6,377.35l-2.6-2.22,3-3.47,2.6,2.22Zm.86.74,3-3.46,6.76,5.53L403,383.91Z" transform="translate(-36 -36)"/><path class="cls-2" d="M377,406.83l-4.23-11.61,4.07-3.74,5.77,2.77-2.28-6,4.07-3.74,11.21,5.17-3.77,3.48-6.81-3.5,3,7-3.49,3.22-6.71-3.59,2.92,7.07Z" transform="translate(-36 -36)"/><path class="cls-2" d="M360.54,412.87l-4-5.36,3.66-2.71,2.86,3.86c1.16,1.58,2.22,1.83,3.87.61a5.52,5.52,0,0,0,2.09-3.34L365.4,401l3.67-2.71,9,12.22-3.66,2.71-3.16-4.27a9.38,9.38,0,0,1-3.42,4.65C365.8,415.1,363,416.19,360.54,412.87Z" transform="translate(-36 -36)"/><path class="cls-2" d="M346.53,420.38l-3-4.8,3.87-2.41.74,1.18a9.23,9.23,0,0,1,4-4.35c2.21-1.37,4.64-1.78,5.94.32,1.56,2.52-.93,5-3.76,6.74a11.14,11.14,0,0,1-3.59,1.53c.72,1.16,2,.45,3.27-.35a24.17,24.17,0,0,0,4.13-3.25l3,2a22.77,22.77,0,0,1-5.22,4.6C352,424,348.85,424.06,346.53,420.38Zm3.12-3.63a12.66,12.66,0,0,0,2.72-1.35c1.79-1.11,2.46-1.76,2.08-2.37s-.83-.33-1.81.28a11.72,11.72,0,0,0-3.24,3Z" transform="translate(-36 -36)"/><path class="cls-2" d="M340.88,425.51l-1.1-2.08c-.5-1-1.13-1.26-2.3-.64a16.51,16.51,0,0,0-2.49,1.53L333.27,421a24.16,24.16,0,0,1,3.34-2.09c3.13-1.64,5.18-1.5,6.33.69l2,3.75,2-1.07,1.77,3.36-2,1.07.88,1.68-3.5,3.13-1.42-2.69L338.53,431l-1.77-3.36Z" transform="translate(-36 -36)"/><path class="cls-2" d="M324.14,437.32l-3.75,1.51L319,435.31l3.79-1.53-2.85-7,4.23-1.71,2.85,7,2.13-.86,1.42,3.52-2.13.86.24.58c.85,2.12,0,3.63-3.64,5.1a24,24,0,0,1-3.19,1.09l-1.06-2.65c.7-.22,1.42-.47,2.2-.78C324,438.51,324.29,438,324.14,437.32Z" transform="translate(-36 -36)"/><path class="cls-2" d="M304.51,444.08,301,433.23l4.34-1.4.46,1.45a9.36,9.36,0,0,1,4.72-3.32c2.44-.79,5.46-.92,6.72,3l2.05,6.34-4.34,1.4-1.48-4.57c-.6-1.86-1.52-2.44-3.48-1.82a5.59,5.59,0,0,0-3,2.5l1.88,5.86Z" transform="translate(-36 -36)"/><path class="cls-2" d="M286.92,443.37l-1.51-6.49,4.44-1,1.09,4.68c.44,1.91,1.31,2.56,3.31,2.1a5.56,5.56,0,0,0,3.25-2.24l-1.39-6,4.44-1,2.58,11.1-4.45,1-.34-1.48a9.29,9.29,0,0,1-5,2.91C290.86,447.51,287.85,447.39,286.92,443.37Z" transform="translate(-36 -36)"/><path class="cls-2" d="M274.4,449.94l-1.49-11.29,4.51-.6,1.5,11.3Zm.49,3.77-.39-3,4.52-.6.39,3Z" transform="translate(-36 -36)"/><path class="cls-2" d="M266.31,446.94l-.2-2.35c-.1-1.08-.56-1.59-1.89-1.48a16.89,16.89,0,0,0-2.88.44l-.32-3.68a22.71,22.71,0,0,1,3.9-.63c3.51-.31,5.35.62,5.56,3.08l.37,4.22,2.29-.2.33,3.79-2.29.19.16,1.9-4.44,1.53-.26-3-4.64.4-.33-3.78Z" transform="translate(-36 -36)"/><path class="cls-2" d="M248.69,451.43l-.18-11.4,4.56-.07.18,11.4Zm.06,3.8-.05-3,4.56-.07.05,3Z" transform="translate(-36 -36)"/><path class="cls-2" d="M243.38,443.85c0-.65-.56-.92-3.31-1.06-2.54-.13-3,0-3,.46s.41.53,3.14.78c5.23.47,7.5,1,7.36,3.89-.16,3.25-3.7,3.62-7.92,3.41s-7.13-.91-7-4.19l4.55.23c0,.6.73.64,2.76.74,2.32.12,3,.15,3-.28s-.46-.48-3.33-.78c-4.47-.45-7.33-.86-7.18-3.84.18-3.47,3.24-3.87,7.55-3.66s8.08,1,7.9,4.53Z" transform="translate(-36 -36)"/><path class="cls-2" d="M217.13,444.88l.37-2.33c.18-1.07-.15-1.68-1.46-1.89a16.66,16.66,0,0,0-2.9-.28l.59-3.65a22.83,22.83,0,0,1,3.93.34c3.49.57,5,1.92,4.64,4.35l-.67,4.19,2.27.36-.61,3.75-2.27-.36-.3,1.87-4.69.4.49-3-4.6-.75.61-3.75Z" transform="translate(-36 -36)"/><path class="cls-2" d="M212.28,442.23c-1,4.1-4.19,5.06-8.9,3.94s-7.16-3.41-6.19-7.52,4.19-5.06,8.9-3.94S213.25,438.12,212.28,442.23Zm-10.65-2.53c-.39,1.63.64,2.3,2.62,2.77s3.21.33,3.59-1.3-.64-2.3-2.62-2.76S202,438.08,201.63,439.7Z" transform="translate(-36 -36)"/><path class="cls-2" d="M175.93,437.23l1.29-3.57a11.08,11.08,0,0,0,2.46,1.29,5.9,5.9,0,0,0,5,.06l2.09-5.79,4.29,1.55-3.87,10.72-4.29-1.55.65-1.79a5,5,0,0,1-4.88.47A11.91,11.91,0,0,1,175.93,437.23Z" transform="translate(-36 -36)"/><path class="cls-2" d="M169.35,438.75l1.16-2.81,4.22,1.75-1.17,2.81Zm1.46-3.51,4.36-10.53,4.21,1.75L175,437Z" transform="translate(-36 -36)"/><path class="cls-2" d="M154.17,431.66l6.59-13.7,4.11,2-.68,1.4a6.57,6.57,0,0,1,5,.47c2.65,1.28,5.05,3.87,3.06,8s-5.52,3.88-8.17,2.61a6.58,6.58,0,0,1-3.49-3.62l-2.32,4.83Zm8.23-6.58c-.73,1.5.13,2.38,2,3.26s3,1,3.78-.5-.14-2.38-2-3.26S163.12,423.57,162.4,425.08Z" transform="translate(-36 -36)"/><path class="cls-2" d="M149,416l-3.84-2.26c2-2.31,4.86-2.32,8.91.06,3.84,2.27,5.67,5.28,3.53,8.91s-5.66,3.51-9.67,1.15-5.8-5.35-3.27-9.64l9.31,5.48c.29-1.24-.65-2.15-1.73-2.79C150.82,416.1,150.19,415.86,149,416Zm3.64,5.56-5-2.91c-.08,1.14.85,1.82,1.9,2.43S151.68,422.2,152.65,421.58Z" transform="translate(-36 -36)"/><path class="cls-2" d="M136.7,402.56l4,2.9-7.8,10.78-4-2.9Z" transform="translate(-36 -36)"/><path class="cls-2" d="M119.89,397.7l4.21-5.18,3.54,2.88-3,3.73c-1.24,1.52-1.22,2.61.37,3.91a5.58,5.58,0,0,0,3.76,1.19l3.88-4.78,3.54,2.88L129,411.18l-3.54-2.88,1-1.18A9.37,9.37,0,0,1,121,405C119,403.35,117.29,400.89,119.89,397.7Z" transform="translate(-36 -36)"/><path class="cls-2" d="M103.8,380.23l4.07-3.92L111,379.6l-1,1a9.22,9.22,0,0,1,5.1,3c1.8,1.87,2.71,4.16.93,5.87-2.13,2.06-5.06.13-7.37-2.26a11.33,11.33,0,0,1-2.25-3.19c-1,.95,0,2,1,3.12a23.82,23.82,0,0,0,4,3.36l-1.3,3.31a23,23,0,0,1-5.59-4.14C101.39,386.29,100.7,383.27,103.8,380.23Zm4.2,2.28a12.49,12.49,0,0,0,1.89,2.37c1.46,1.52,2.23,2.05,2.75,1.55s.16-.89-.65-1.72a11.71,11.71,0,0,0-3.64-2.53Z" transform="translate(-36 -36)"/><path class="cls-2" d="M98.24,373.81c-3.37,2.54-6.45,1.23-9.37-2.65s-3.33-7.2,0-9.73,6.46-1.22,9.37,2.65S101.61,371.28,98.24,373.81Zm-6.58-8.74c-1.34,1-1,2.18.25,3.81s2.25,2.3,3.59,1.29,1-2.18-.25-3.81S93,364.06,91.66,365.07Z" transform="translate(-36 -36)"/><path class="cls-2" d="M79.36,348.16,85,344.6l2.43,3.86L83.37,351c-1.66,1-2,2.08-.89,3.82a5.51,5.51,0,0,0,3.17,2.33l5.21-3.28,2.43,3.85-9.64,6.08L81.22,360l1.28-.81a9.36,9.36,0,0,1-4.38-3.75C76.75,353.24,75.88,350.36,79.36,348.16Z" transform="translate(-36 -36)"/><path class="cls-2" d="M76.15,336.86l-2.06-4c2.94-.89,5.35.62,7.52,4.78,2.06,4,2,7.48-1.73,9.43s-6.65,0-8.8-4.16S69,335.34,73.41,333l5,9.59c.91-.9.59-2.17,0-3.28C77.65,337.88,77.24,337.35,76.15,336.86Zm.14,6.64-2.65-5.09c-.68.93-.25,2,.31,3.07S75.14,343.51,76.29,343.5Z" transform="translate(-36 -36)"/><path class="cls-2" d="M63.93,319.33l3.51-1.46,5.86,14-3.51,1.47Z" transform="translate(-36 -36)"/><path class="cls-2" d="M60.26,302.52l6.36-2L68,304.83l-4.57,1.47c-1.87.59-2.45,1.52-1.83,3.47a5.57,5.57,0,0,0,2.49,3.06L70,311l1.39,4.34-14.48,4.63-1.39-4.34L60.55,314a9.32,9.32,0,0,1-3.31-4.73C56.46,306.79,56.34,303.78,60.26,302.52Z" transform="translate(-36 -36)"/><path class="cls-2" d="M61,301.65c-4.11,1-6.39-1.51-7.47-6.23s-.11-7.93,4-8.87S64,288.06,65,292.78,65.14,300.71,61,301.65ZM58.58,291c-1.63.37-1.78,1.6-1.32,3.58s1.12,3,2.75,2.64,1.78-1.6,1.32-3.58S60.21,290.62,58.58,291Z" transform="translate(-36 -36)"/><path class="cls-2" d="M50.2,274.75l3.76-.57A11.5,11.5,0,0,0,54,277a5.92,5.92,0,0,0,2.33,4.39l6.09-.93.69,4.5-11.27,1.73-.69-4.5,1.88-.29a5,5,0,0,1-2.74-4.06A12,12,0,0,1,50.2,274.75Z" transform="translate(-36 -36)"/><path class="cls-2" d="M57,268.85c.64-.05.84-.68.62-3.42-.2-2.54-.35-3-.84-2.93s-.48.48-.38,3.21c.21,5.25,0,7.57-2.9,7.8-3.24.26-4.07-3.2-4.4-7.4s0-7.19,3.25-7.45l.37,4.55c-.61,0-.55.8-.39,2.83.19,2.31.24,3,.68,2.94s.41-.51.33-3.4c-.12-4.49-.09-7.37,2.89-7.61,3.46-.27,4.25,2.71,4.59,7s.1,8.13-3.46,8.41Z" transform="translate(-36 -36)"/><path class="cls-2" d="M55.77,246.7l.08-4.46c3,.61,4.41,3.09,4.34,7.78-.08,4.47-1.8,7.53-6,7.47s-5.84-3.19-5.77-7.85,1.8-7.68,6.77-7.6L55,252.84c1.22-.36,1.55-1.62,1.57-2.88C56.6,248.31,56.5,247.64,55.77,246.7Zm-3,5.9.1-5.74c-1,.5-1.17,1.64-1.19,2.85S51.72,252.07,52.73,252.6Z" transform="translate(-36 -36)"/><path class="cls-2" d="M54.81,233.81c-4.19-.5-5.5-3.59-4.92-8.4s2.6-7.49,6.78-7,5.5,3.6,4.92,8.41S59,234.32,54.81,233.81ZM56.12,223c-1.66-.2-2.21.9-2.45,2.92s0,3.22,1.69,3.42,2.21-.9,2.45-2.92S57.78,223.15,56.12,223Z" transform="translate(-36 -36)"/><path class="cls-2" d="M60,202.44c4.51.93,5.11,4.41,4.51,7.29A6.51,6.51,0,0,1,61.79,214L68,215.27l-.92,4.46-15.81-3.27.92-4.46,1.52.32a6.57,6.57,0,0,1-.75-5C53.52,204.47,55.45,201.51,60,202.44ZM59,206.9c-1.64-.33-2.28.72-2.69,2.71s-.24,3.21,1.4,3.54,2.28-.71,2.69-2.7S60.67,207.24,59,206.9Z" transform="translate(-36 -36)"/><path class="cls-2" d="M64.54,191.91l1.26-4.28c2.74,1.4,3.43,4.16,2.1,8.66-1.27,4.28-3.75,6.77-7.79,5.58s-4.77-4.64-3.45-9.1,3.79-6.93,8.56-5.52l-3.07,10.37c1.28,0,1.93-1.15,2.29-2.36C64.9,193.68,65,193,64.54,191.91ZM60,196.77l1.62-5.5c-1.13.2-1.56,1.26-1.9,2.43S59.19,196,60,196.77Z" transform="translate(-36 -36)"/><path class="cls-2" d="M69.49,171.45l6.21,2.42L74,178.12l-4.48-1.75c-1.82-.71-2.85-.35-3.6,1.56a5.51,5.51,0,0,0,0,3.94l5.73,2.23-1.65,4.25-10.62-4.14L61.09,180l1.42.56a9.38,9.38,0,0,1,.4-5.76C63.85,172.37,65.64,170,69.49,171.45Z" transform="translate(-36 -36)"/><path class="cls-2" d="M77.66,160.93c.57.31,1.07-.11,2.38-2.54,1.21-2.24,1.32-2.68.88-2.91s-.66.14-2.06,2.5c-2.67,4.51-4.11,6.35-6.67,5-2.86-1.55-1.68-4.9.33-8.61s3.88-6.05,6.77-4.49l-2.16,4c-.54-.29-.9.38-1.86,2.17-1.1,2-1.42,2.62-1,2.83s.62-.2,2.13-2.67c2.33-3.84,3.92-6.24,6.55-4.82C86,153,85,156,83,159.76s-4.33,6.88-7.48,5.18Z" transform="translate(-36 -36)"/><path class="cls-2" d="M76,141.09,89,149l-2.38,3.89-13-7.94Z" transform="translate(-36 -36)"/><path class="cls-2" d="M91.71,137.29l2.54-3.68c2.16,2.19,2,5-.7,8.89-2.54,3.67-5.67,5.27-9.15,2.88s-3.09-5.9-.44-9.73,5.75-5.4,9.85-2.57L87.67,142c1.22.38,2.19-.5,2.9-1.53C91.51,139.09,91.8,138.48,91.71,137.29Zm-5.8,3.22,3.26-4.72c-1.13-.16-1.88.71-2.57,1.71S85.36,139.51,85.91,140.51Z" transform="translate(-36 -36)"/><path class="cls-2" d="M89,122.74l2.4,1.86-2.79,3.61-2.4-1.86Zm3,2.33,9,7-2.79,3.6-9-7Z" transform="translate(-36 -36)"/><path class="cls-2" d="M102.68,112.47l7.51,6.5c3.45,3,2.56,6.54,0,9.5a30.55,30.55,0,0,1-5.34,4.8l-2.8-2.43a34,34,0,0,0,4.72-4.23c1.45-1.68,1.83-2.93-.32-4.85a6,6,0,0,1-1.78,4.95c-2.3,2.65-5.21,3.47-8.11,1s-2.51-5.52-.21-8.18A6.06,6.06,0,0,1,101,117l-1.29-1.12Zm1,6.93c-1-.85-1.8-.53-3.38,1.29s-1.78,2.69-.8,3.53,1.8.53,3.38-1.29S104.69,120.24,103.72,119.4Z" transform="translate(-36 -36)"/><path class="cls-2" d="M118.09,103.93l4.66,4.77-3.26,3.18-3.36-3.43c-1.37-1.4-2.46-1.51-3.92-.08a5.54,5.54,0,0,0-1.61,3.6l4.3,4.4-3.26,3.18L101,108.69l3.26-3.19,3.71,3.81a9.4,9.4,0,0,1,2.75-5.08C112.57,102.44,115.21,101,118.09,103.93Z" transform="translate(-36 -36)"/><path class="cls-2" d="M124.48,102.82l2.25,2.57-3.43,3-2.25-2.57Z" transform="translate(-36 -36)"/></svg>