<svg id="Calque_1" data-name="Calque 1" xmlns="http://www.w3.org/2000/svg" viewBox="0 0 385.87 278.71"><defs><style>.cls-1{fill:none;stroke:#fff;stroke-miterlimit:10;stroke-width:9px;}.cls-2{fill:#119DA4;}</style></defs><title>spark</title><ellipse class="cls-1" cx="249.89" cy="250.19" rx="190.5" ry="131.85" transform="translate(-102.89 -54.37) rotate(-11.81)"/><path class="cls-2" d="M127.49,343a0,0,0,0,1,0,0A29,29,0,0,0,99,371.49H98A29,29,0,0,0,69.51,343c0-.17,0-.34,0-.51s0-.34,0-.51A29,29,0,0,0,98,313.51h1c0,.16,0,.33,0,.49A29,29,0,0,0,127.49,343Z" transform="translate(-56.96 -110.84)"/><path class="cls-2" d="M421.49,147a0,0,0,0,1,0,0A29,29,0,0,0,393,175.49h-1A29,29,0,0,0,363.51,147c0-.17,0-.34,0-.51s0-.34,0-.51A29,29,0,0,0,392,117.51h1c0,.16,0,.33,0,.49A29,29,0,0,0,421.49,147Z" transform="translate(-56.96 -110.84)"/></svg>