<svg id="Calque_1" data-name="Calque 1" xmlns="http://www.w3.org/2000/svg" viewBox="0 0 1000.81 1000.81"><defs><style>.cls-1{fill:#119da4;}</style></defs><title>star3</title><path class="cls-1" d="M990.23,511.15,819.49,538.23A338.59,338.59,0,0,0,538.11,819.61Q524.57,905,511,990.36c-2.07,13-20.81,13-22.87,0Q474.62,905,461.08,819.61A338.59,338.59,0,0,0,179.7,538.23L9,511.15c-13-2.06-13-20.8,0-22.87L179.7,461.2A338.59,338.59,0,0,0,461.08,179.82Q474.63,94.46,488.16,9.08c2.06-13,20.8-13,22.87,0q13.53,85.37,27.08,170.74A338.59,338.59,0,0,0,819.49,461.2l170.74,27.08C1003.26,490.35,1003.26,509.09,990.23,511.15Z" transform="translate(0.81 0.69)"/></svg>